<svg xmlns="http://www.w3.org/2000/svg" width="160" height="160" fill="none"><path fill="#fff" fill-rule="evenodd" d="M150 64.653c0 18.512-13.866 33.787-31.779 36.003-2.958 17.063-17.837 30.039-35.746 30.039-20.036 0-36.28-16.243-36.28-36.28 0-10.796 4.716-20.491 12.2-27.137-3.477-6.977-10.682-11.77-19.007-11.77-11.722 0-21.224 9.503-21.224 21.225 0 11.721 9.502 21.224 21.224 21.224 2.407 0 4.72-.4 6.875-1.139a35.902 35.902 0 0 0 4.793 15.872 36.6 36.6 0 0 1-4.86.323c-20.038 0-36.281-16.243-36.281-36.28 0-20.037 16.243-36.28 36.28-36.28 13.377 0 25.063 7.239 31.354 18.014.141-.02.283-.038.425-.056 2.959-17.063 17.837-30.039 35.746-30.039 20.037 0 36.28 16.243 36.28 36.28m-61.777-9.594c0 1.22.103 2.415.3 3.578 10.689 1.793 19.793 8.26 25.138 17.228 9.703-1.955 17.01-10.527 17.01-20.806 0-11.722-9.502-21.224-21.224-21.224s-21.224 9.502-21.224 21.224m-1.577 60.58c11.722 0 21.224-9.502 21.224-21.224s-9.502-21.224-21.224-21.224-21.224 9.502-21.224 21.224 9.502 21.224 21.224 21.224m15.224-54.973c.971.81 2.255 1.435 3.849 1.877 1.434.397 2.77.516 4.01.358 1.263-.171 2.329-.609 3.2-1.313.888-.7 1.496-1.64 1.823-2.823.462-1.666.306-3.088-.467-4.267-.756-1.174-1.973-2.07-3.654-2.69l-.315-.117 5.941-3.476a.977.977 0 0 0 .557-.656l.454-1.64a.677.677 0 0 0-.217-.726.732.732 0 0 0-.268-.131l-11.557-3.201a.68.68 0 0 0-.536.054.681.681 0 0 0-.322.432l-.498 1.8c-.05.18-.03.35.061.51.091.16.235.267.432.321l7.659 2.122-6.079 3.351c-.287.133-.478.37-.573.71l-.32 1.155a.647.647 0 0 0 .062.51c.091.16.226.264.405.314l2.768.767c1.093.302 1.857.746 2.294 1.33.459.57.559 1.322.301 2.253-.258.932-.77 1.562-1.536 1.89-.748.333-1.668.348-2.761.045-1.971-.546-2.977-1.51-3.019-2.89-.044-.399-.263-.652-.658-.761l-2.472-.685a.654.654 0 0 0-.155-.024.544.544 0 0 0-.293.073.567.567 0 0 0-.273.359c-.187.816-.119 1.684.205 2.603.347.906.998 1.762 1.952 2.566M36.34 85.064c.09.16.225.265.404.314l2.5.692c.179.05.348.03.509-.061a.661.661 0 0 0 .315-.405l4.853-17.522a.668.668 0 0 0-.014-.41.719.719 0 0 0-.048-.1.646.646 0 0 0-.405-.314l-2.418-.67a1.27 1.27 0 0 0-.724.002l-7.316 3.009c-.236.089-.385.24-.444.455a.668.668 0 0 0 .03.414l.739 1.825c.076.214.22.35.436.41a.632.632 0 0 0 .44-.023l4.922-1.993-3.841 13.868c-.05.179-.03.348.062.508m51.697 19.065c-1.6.236-3.016.191-4.248-.134-1.216-.347-2.194-.927-2.934-1.738-.74-.812-1.195-1.797-1.366-2.956-.152-1.03-.038-1.977.342-2.841a5.08 5.08 0 0 1 1.797-2.154 4.487 4.487 0 0 1-1.812-1.396c-.469-.626-.766-1.371-.894-2.236-.238-1.618.178-3.005 1.248-4.158 1.086-1.175 2.732-1.925 4.94-2.25 2.206-.326 3.989-.09 5.346.705 1.358.796 2.156 2.003 2.395 3.622.127.864.057 1.664-.21 2.399-.253.713-.686 1.341-1.302 1.883a4.858 4.858 0 0 1 2.342 1.543c.632.715 1.025 1.597 1.18 2.645.17 1.159.018 2.234-.456 3.224-.477.973-1.256 1.802-2.34 2.488-1.085.667-2.428 1.119-4.028 1.354m-1.732-11.752c.953-.16 1.71-.515 2.267-1.067.573-.574.803-1.246.689-2.019-.117-.79-.523-1.38-1.219-1.765-.696-.386-1.531-.507-2.506-.364-.956.141-1.712.497-2.267 1.067-.555.57-.774 1.251-.657 2.042.117.791.523 1.38 1.219 1.766.693.367 1.517.48 2.474.34m1.305 8.856c1.085-.16 1.946-.569 2.582-1.227.654-.66.914-1.45.778-2.37-.135-.919-.612-1.6-1.429-2.044-.798-.446-1.74-.589-2.825-.429-1.086.16-1.946.569-2.582 1.226-.639.64-.889 1.428-.75 2.366.135.92.602 1.602 1.4 2.048.8.447 1.741.59 2.826.43" clip-rule="evenodd"/></svg>